# xmcd
#
# Track frame offsets: 
#        150
#        3194
#        8553
#        9352
#        12750
#        13881
#        15569
#        17207
#        18397
#        19365
#        19881
#        21216
#        23996
#        25350
#        28442
#        31989
#        36010
#        38240
#        41184
#        42992
#        45554
#        48200
#        49095
#        51594
#        52280
#        53638
#        55181
#        57036
#        60224
#        63353
#        64151
#        65866
#        68706
#        71013
#        73814
#        76625
#        78491
#        81766
#        86318
#        87076
#        89735
#        91176
#        91705
#        92464
#        92972
#        93699
#        94349
#        95170
#        98429
#        100990
#        112924
#        113554
#        116149
#        119959
#        120829
#        121671
#        124450
#        127171
#        128341
#        128897
#        130243
#        131560
#        132278
#        133505
#        134574
#        135673
#        138419
#        139254
#        141909
#        143158
#        144139
#        146318
#        148468
#        149841
#        152630
#        155281
#        156025
#        159807
#        162659
#
# Disc length: 2206 seconds
#
# Revision: 0
# Processed by: cddbd v1.5.2PL0 Copyright (c) Steve Scherf et al.
# Submitted via: ExactAudioCopy v0.95b4
#
DISCID=5c089c4f
DTITLE=Keith Wyatt - Acoustic Blues Guitar
DYEAR=1997
DGENRE=Blues
TTITLE0=Introduction
TTITLE1=Tuning
TTITLE2=Example 1: The E Chord
TTITLE3=Example 2: The E7 Chord
TTITLE4=Example 3: The A Chord
TTITLE5=Example 4: The A7 Chord
TTITLE6=Example 5:The B7 Chord
TTITLE7=Example 6: Combine All Three Chords
TTITLE8=Example 7: D and D7 Chords
TTITLE9=Example 8: C7
TTITLE10=Example 9: F7
TTITLE11=Example 10: G and G7 Chords
TTITLE12=Example 11: Bass-Chord Pattern
TTITLE13=Example 12: Blues Progression in E
TTITLE14=Example 13: Blues in A
TTITLE15=Example 14: Blues in C
TTITLE16=Example 15: The Quick-Change Progression
TTITLE17=Example 16: The Shuffle Groove
TTITLE18=Example 17: Left-Hand Embellishments
TTITLE19=Example 18: A7 Embellishment
TTITLE20=Example 19: Whole Progression
TTITLE21=Example 20: E7 Variation
TTITLE22=Example 21: Quick-Change in E
TTITLE23=Example 22A: E7 to A7 Bass-line
TTITLE24=Example 22B: A7 to E7 Bass-line
TTITLE25=Example 22C: Another A7 to E7 Bass-line
TTITLE26=Example 22D: B7 to A7 Bass-line
TTITLE27=Example 22E: The Whole Bass-line Progression
TTITLE28=Example 23: The Jimmy Reed Progression
TTITLE29=Example 24: Up-strokes and Accents
TTITLE30=Example 25: Blues Rhythm Lick
TTITLE31=Example 26: Full Progression
TTITLE32=Example 27
TTITLE33=Example 28
TTITLE34=Example 29: Blues in E Turnaround
TTITLE35=Example 30A: A7 Embellishments
TTITLE36=Example 30B: D7 Embellishments
TTITLE37=Example 30C: Blues in A
TTITLE38=Example 30D: E7 to D7/F#
TTITLE39=Example 30E: Blues in A
TTITLE40=Example 31: Blues in A Turnaround
TTITLE41=Example 32A: E7 Blues Lick
TTITLE42=Example 32B: A7 Blues Lick
TTITLE43=Example 32C: B7 Blues Lick
TTITLE44=Example 32D: E7 Lick
TTITLE45=Example 32E: A7 Lick
TTITLE46=Example 32F: Turnaround Variation
TTITLE47=Example 32G: Whole Progression
TTITLE48=Example 33: More Blues Bass-lines
TTITLE49=Example 34: E7 Inversions
TTITLE50=Example 35: Chromaticism
TTITLE51=Example 36: Blues Chord Solo 1
TTITLE52=Example 37A: A7 Inversions
TTITLE53=Example 37B: A7 Inversions with Chromatics
TTITLE54=Example 37C: Chord Solo Turnaround
TTITLE55=Example 37D: Blues Chord Solo 2
TTITLE56=Example 37E: Blues Chord Solo 3
TTITLE57=Example 38A: E Blues Lick 1
TTITLE58=Example 38B: E Blues Lick 2
TTITLE59=Example 38C: E Blues Lick 3
TTITLE60=Example 38D: E Blues Lick 4
TTITLE61=Example 38E: E Blues Lick 5
TTITLE62=Example 38F: E Blues Lick 6
TTITLE63=Example 38G: E Blues Lick 7
TTITLE64=Example 38H: Double-Stop Turnaround
TTITLE65=Example 38I: A Progression Of Licks
TTITLE66=Example 39A
TTITLE67=Example 39B
TTITLE68=Example 39C
TTITLE69=Example 39D
TTITLE70=Example 39E
TTITLE71=Example 39F
TTITLE72=Example 39G
TTITLE73=Example 39H
TTITLE74=Example 39I: Muddy Waters Progression
TTITLE75=Example 39J: Muddy Waters Turnaround
TTITLE76=Example 40
TTITLE77=Example 41
TTITLE78=Example 42
EXTD=
EXTT0=
EXTT1=
EXTT2=
EXTT3=
EXTT4=
EXTT5=
EXTT6=
EXTT7=
EXTT8=
EXTT9=
EXTT10=
EXTT11=
EXTT12=
EXTT13=
EXTT14=
EXTT15=
EXTT16=
EXTT17=
EXTT18=
EXTT19=
EXTT20=
EXTT21=
EXTT22=
EXTT23=
EXTT24=
EXTT25=
EXTT26=
EXTT27=
EXTT28=
EXTT29=
EXTT30=
EXTT31=
EXTT32=
EXTT33=
EXTT34=
EXTT35=
EXTT36=
EXTT37=
EXTT38=
EXTT39=
EXTT40=
EXTT41=
EXTT42=
EXTT43=
EXTT44=
EXTT45=
EXTT46=
EXTT47=
EXTT48=
EXTT49=
EXTT50=
EXTT51=
EXTT52=
EXTT53=
EXTT54=
EXTT55=
EXTT56=
EXTT57=
EXTT58=
EXTT59=
EXTT60=
EXTT61=
EXTT62=
EXTT63=
EXTT64=
EXTT65=
EXTT66=
EXTT67=
EXTT68=
EXTT69=
EXTT70=
EXTT71=
EXTT72=
EXTT73=
EXTT74=
EXTT75=
EXTT76=
EXTT77=
EXTT78=
PLAYORDER=
